<?xml version="1.0" standalone="no"?>
<!DOCTYPE svg PUBLIC "-//W3C//DTD SVG 20010904//EN"
 "http://www.w3.org/TR/2001/REC-SVG-20010904/DTD/svg10.dtd">
<svg version="1.0" xmlns="http://www.w3.org/2000/svg"
 width="600.000000pt" height="600.000000pt" viewBox="0 0 600.000000 600.000000"
 preserveAspectRatio="xMidYMid meet">
<metadata>
Created by potrace 1.14, written by Peter Selinger 2001-2017
</metadata>
<g transform="translate(0.000000,600.000000) scale(0.100000,-0.100000)"
fill="#000000" stroke="none">
<path d="M3410 811 c-5 -11 -10 -39 -10 -62 0 -36 2 -40 13 -28 11 14 41 6
252 -65 l240 -81 -3 -80 c-4 -103 7 -225 20 -225 7 0 9 47 4 150 l-7 150 25 0
c13 0 123 23 243 51 120 27 271 61 336 74 225 47 297 66 297 81 0 11 -6 11
-27 3 -15 -5 -119 -30 -232 -54 -268 -57 -509 -113 -545 -125 -29 -10 -83 -14
-75 -6 2 3 85 23 184 46 99 22 194 47 210 54 17 7 128 35 247 62 120 27 218
52 218 57 0 12 -22 8 -151 -28 -68 -19 -180 -46 -249 -61 -69 -14 -188 -41
-264 -60 -77 -19 -147 -34 -157 -34 -27 0 -160 46 -360 125 -104 41 -191 75
-194 75 -2 0 -9 -9 -15 -19z m127 -45 c257 -98 425 -171 373 -162 -43 8 -192
62 -285 103 -49 22 -116 49 -147 59 -32 9 -58 21 -58 26 0 14 27 9 117 -26z"/>
<path d="M3403 663 c-7 -12 -13 -53 -13 -92 0 -61 3 -72 22 -85 12 -9 36 -15
53 -15 30 2 30 2 -7 12 l-37 10 -3 96 c-3 83 -5 93 -15 74z"/>
<path d="M5650 417 c0 -31 -34 -79 -66 -95 -35 -16 -39 -29 -34 -106 3 -42 29
-78 54 -74 21 3 116 120 116 143 0 7 6 15 13 18 15 6 36 66 29 85 -10 32 -112
58 -112 29z"/>
</g>
</svg>
